<svg xmlns="http://www.w3.org/2000/svg" viewBox="0 0 264.29 90"><defs><style>.cls-1{fill:#683588;}.cls-2{fill:#ef8e21;}.cls-3{opacity:0.33;}.cls-4{fill:#fff;}.cls-5{fill:#4e2867;}</style></defs><g id="Layer_2" data-name="Layer 2"><g id="Layer_1-2" data-name="Layer 1"><path class="cls-1" d="M122.71,30.74c2.12-1.64,6.84-.22,7.42,3.75-.71,6.45-2.21,15.51-.93,22,.53,1.28,1.42.27,2.52-1.46,2.25-4.11,5.48-10.25,7.47-14.49.66-.31,1.76,0,1.63.84-1.77,3.93-4.68,10.12-7.42,15.11-1.42,2.65-2.52,4.82-4.24,6.1a2.76,2.76,0,0,1-4.07-.14c-3.75-4.24-3.71-12.89-3.49-18C121.74,41.29,122.71,37.76,122.71,30.74Zm.31-9.5c-.89-4.07-.36-5.88.7-6.45,1.86-1.06,5.44,2,6.36,4.9C131.5,23.58,124.43,27.6,123,21.24Z"/><path class="cls-1" d="M170.42,40.54c-2,4.24-5.22,10.38-7.47,14.49-1.5,2.3-2.74,3.67-2.87-1.32-.13-13.08,4-29.45,7.21-41.82l.48-1.44C171.69-.1,166.05,0,166.05,0c-3.92-.39-6,10-6,10l-.26.87c-1.37,4.24-4.5,18.86-5.52,23.32-1.28-1.9-4.86-2.56-7.69-2.21-9.8,1.42-14.4,25.05-4.41,29.82,5.43,2,8.08-2.3,11.26-6.32a12.61,12.61,0,0,0,2.92,7,2.75,2.75,0,0,0,4.06.14c1.72-1.28,2.83-3.45,4.24-6.1,2.74-5,5.66-11.18,7.42-15.11C172.18,40.54,171.08,40.23,170.42,40.54Zm-16.88,2.92a90.06,90.06,0,0,0-.4,9.19c-1.76,3.18-7.9,10-8.61,1.68C144,44.12,150.1,29.54,154,37,153.81,39.09,153.68,41.29,153.54,43.46Z"/><path class="cls-1" d="M260.18,63.43c-2.87-1.06-3.4.17-3.75,2.07-1.5,9.72-9.19,15.51-16.3,16-16.3,1.06-36.58-14.93-52.31-19.87-.88-12.24-9.19-30.31-6.58-36.63.22-.53.09-1.59-.49-1.76a2.49,2.49,0,0,0-1.45-.07l-.1,0h0a4.13,4.13,0,0,0-2.29,2L163,55c-1.74,2.93-2.51,1.51-2.51,1.51a4.65,4.65,0,0,0-.9,4.15l5.09-4.2,8-16.28c.61-1.12,1.39-2.73,2.12-4.31l0-.06.22-.33c0,.06,0,.14,0,.26,0,4.68,4,14,5.3,23.46a9.58,9.58,0,0,0-3.27-.31,8.09,8.09,0,0,0-7.47,7.6c-.17,3,1.42,6,5.13,7.77,5.39,2.52,11.39-1.59,12.81-9.1,21.2,7.07,49.56,38.35,71.47,18.07C263.94,78.71,267.34,66.12,260.18,63.43Zm-84.24,7.82c-2.21-.23-4.51-2.17-4.15-4.78.48-3.4,4.41-7,8.7-4.06C180.49,64.49,181.28,71.78,175.94,71.25Z"/><path class="cls-2" d="M207.59,53.6a2.76,2.76,0,0,1,2,.86,2.85,2.85,0,0,1,.86,2.09,2.9,2.9,0,0,1-.86,2.13,2.76,2.76,0,0,1-2,.86H194a2.82,2.82,0,0,1-2.12-.86,3.25,3.25,0,0,1-.92-2.13V34.39a2.8,2.8,0,0,1,.88-2.09,3,3,0,0,1,2.16-.86,2.93,2.93,0,0,1,2.05.86,2.78,2.78,0,0,1,.9,2.09V53.6Z"/><path class="cls-2" d="M223.71,38.31a10.28,10.28,0,0,1,3.72,1.15,10.67,10.67,0,0,1,3,2.35,11.17,11.17,0,0,1,2,3.26,10.27,10.27,0,0,1,.73,3.86v7.79a2.72,2.72,0,0,1-.88,2,2.82,2.82,0,0,1-4.45-.57,2.13,2.13,0,0,0-.4.2,3,3,0,0,1-.35.19,10.64,10.64,0,0,1-2.16.75,10.5,10.5,0,0,1-2.42.27,10.17,10.17,0,0,1-5.9-1.79,10.94,10.94,0,0,1-3.88-4.6,11.66,11.66,0,0,1-.68-2.07,10.2,10.2,0,0,1,0-4.4,11.66,11.66,0,0,1,.68-2.07A10.78,10.78,0,0,1,216.58,40a10.3,10.3,0,0,1,5.9-1.76h.64A4,4,0,0,1,223.71,38.31Zm-1.27,15.55a4.92,4.92,0,0,0,1.91-.37,4.79,4.79,0,0,0,1.56-1A4.84,4.84,0,0,0,227,50.89a4.74,4.74,0,0,0,.4-2,4.49,4.49,0,0,0-.4-1.87,5,5,0,0,0-1.08-1.59,5.28,5.28,0,0,0-1.58-1.08,4.72,4.72,0,0,0-1.87-.39,4.48,4.48,0,0,0-1.85.39A5.49,5.49,0,0,0,219,45.47a5.32,5.32,0,0,0-1.08,1.59,4.67,4.67,0,0,0,0,3.78,5.07,5.07,0,0,0,1.11,1.57,5.22,5.22,0,0,0,1.56,1.05A4.29,4.29,0,0,0,222.44,53.86Z"/><path class="cls-2" d="M238.64,31.49a2.2,2.2,0,0,1,1.1.19,3.69,3.69,0,0,1,.95.64,2.7,2.7,0,0,1,.64,1,2.94,2.94,0,0,1,.22,1.12v5.07a10.38,10.38,0,0,1,3.19-1,11.27,11.27,0,0,1,3.28,0,11.79,11.79,0,0,1,3.18,1,11.47,11.47,0,0,1,2.86,2,11,11,0,0,1,2.31,3.42,10.64,10.64,0,0,1,.77,4.16,10,10,0,0,1-.86,4.14A11.08,11.08,0,0,1,254,56.46a10.85,10.85,0,0,1-3.39,2.29,10.2,10.2,0,0,1-4.1.84,9.92,9.92,0,0,1-4-.86A11.48,11.48,0,0,1,239,56.42a11.15,11.15,0,0,1-2.36-3.4,9.7,9.7,0,0,1-.88-4.09V34.17a2.28,2.28,0,0,1,.26-1,3.26,3.26,0,0,1,.67-.88,3.08,3.08,0,0,1,.9-.6A2.18,2.18,0,0,1,238.64,31.49Zm2.91,17.44a4.61,4.61,0,0,0,.4,1.91A4.68,4.68,0,0,0,243,52.41a5.22,5.22,0,0,0,1.56,1.05,4.48,4.48,0,0,0,1.89.4,4.57,4.57,0,0,0,1.88-.4,5.19,5.19,0,0,0,1.58-1.05A4.68,4.68,0,0,0,251,50.84a4.83,4.83,0,0,0-1.08-5.39,5.41,5.41,0,0,0-1.58-1.06,4.73,4.73,0,0,0-1.88-.39,4.34,4.34,0,0,0-1.89.41,5.57,5.57,0,0,0-1.56,1.1A5.09,5.09,0,0,0,242,47.1,4.41,4.41,0,0,0,241.55,48.93Z"/><path class="cls-2" d="M263.7,56.59a2.89,2.89,0,0,1-.88,2.12,2.93,2.93,0,0,1-2.15.88,2.85,2.85,0,0,1-2.1-.88,3,3,0,0,1,0-4.23,2.82,2.82,0,0,1,2.1-.88,3,3,0,0,1,3,3Z"/><path class="cls-1" d="M108.43,21.23c4.13-6.38,6.19-12.65-1.12-18C103.78.73,100,1,99,5.43c-.47,1.67-.65,3.64-1,5.72A54.08,54.08,0,0,1,80.52,39.21c0-.08,0-.18,0-.27a8.83,8.83,0,0,0,.3,4.59C91.25,40.12,102.35,30.81,108.43,21.23Z"/><g class="cls-3"><circle class="cls-4" cx="98.91" cy="28.08" r="1.47"/><circle class="cls-4" cx="103.83" cy="22.07" r="1.47"/><circle class="cls-4" cx="107.45" cy="15.77" r="1.47"/><circle class="cls-4" cx="108.03" cy="9.19" r="1.47"/></g><path class="cls-1" d="M120.06,66.52c-17.81-4.1-28.43-12.31-38.85-29.79-1.07,2.94.14,1.41.12,2,0-.49-.74,1.51-.72,1C81.87,51.14,99.3,79,112.67,79.33c1.85,0,5.25.3,7.61-1.47C124.81,74.66,127.28,68.28,120.06,66.52Z"/><g class="cls-3"><circle class="cls-4" cx="98.24" cy="66.33" r="1.41"/><circle class="cls-4" cx="103.86" cy="71.18" r="1.41"/><circle class="cls-4" cx="109.79" cy="74.79" r="1.41"/><circle class="cls-4" cx="116.07" cy="75.5" r="1.41"/></g><g class="cls-3"><circle class="cls-4" cx="31.01" cy="72.11" r="1.53"/><circle class="cls-4" cx="38.19" cy="68.45" r="1.53"/><circle class="cls-4" cx="44.25" cy="63.96" r="1.53"/><circle class="cls-4" cx="47.53" cy="57.94" r="1.53"/></g><g class="cls-3"><circle class="cls-4" cx="22.8" cy="55.22" r="1.37"/><circle class="cls-4" cx="30.05" cy="55" r="1.37"/><circle class="cls-4" cx="36.71" cy="53.7" r="1.37"/><circle class="cls-4" cx="41.7" cy="50.07" r="1.37"/></g><g class="cls-3"><circle class="cls-4" cx="46.98" cy="58.28" r="1.42"/><circle class="cls-4" cx="49.78" cy="65.23" r="1.42"/><circle class="cls-4" cx="53.43" cy="71.22" r="1.42"/><circle class="cls-4" cx="58.73" cy="74.77" r="1.42"/></g><path class="cls-1" d="M86.22,81.62c-10.09-14.12-12.51-26.57-9-45.37-2.6,1.38-.78,1.08-1.15,1.46.33-.32-1.47.59-1.15.27C68.7,46.74,63.68,77.26,73,85.9c1.34,1.14,3.54,3.53,6.32,3.79C84.51,90.31,90.24,87.41,86.22,81.62Z"/><g class="cls-3"><circle class="cls-4" cx="70.47" cy="69.58" r="1.38"/><circle class="cls-4" cx="72.34" cy="76.61" r="1.38"/><circle class="cls-4" cx="75.14" cy="82.82" r="1.38"/><circle class="cls-4" cx="79.83" cy="86.87" r="1.38"/></g><path class="cls-1" d="M49.1,81.62c10.09-14.12,12.51-26.57,9-45.37,2.6,1.38.78,1.08,1.15,1.46-.33-.32,1.47.59,1.15.27,6.21,8.76,11.23,39.28,1.92,47.92C61,87,58.79,89.43,56,89.69,50.81,90.31,45.08,87.41,49.1,81.62Z"/><path class="cls-1" d="M6.43,52.1C25,54.85,38.26,51,54.78,38.15c-.07,3.22-.67,1.3-.85,1.85.15-.48.14,1.73.29,1.26C48.75,51.7,21.6,71.86,8.69,67.12,6.94,66.39,3.56,65.45,2,62.86-1.17,58.1-1.14,51.08,6.43,52.1Z"/><g class="cls-3"><circle class="cls-4" cx="27.15" cy="58.73" r="1.45"/><circle class="cls-4" cx="20.36" cy="62.2" r="1.45"/><circle class="cls-4" cx="13.56" cy="64.37" r="1.45"/><circle class="cls-4" cx="7.11" cy="63.55" r="1.45"/></g><path class="cls-1" d="M44.16,73.17c-5,6-10.62,9.85-18,4.23-3.53-2.72-4.4-6.55-.34-8.85,1.5-1,3.39-1.72,5.32-2.72A55.64,55.64,0,0,0,53.57,40.36l-.26.12a9.19,9.19,0,0,1,4.6-1.07C57.65,50.65,51.78,64.34,44.16,73.17Z"/><g class="cls-3"><circle class="cls-4" cx="47.95" cy="63.05" r="1.5"/><circle class="cls-4" cx="43.55" cy="69.6" r="1.5"/><circle class="cls-4" cx="38.48" cy="74.98" r="1.5"/><circle class="cls-4" cx="32.25" cy="77.47" r="1.5"/></g><g class="cls-3"><circle class="cls-4" cx="64.85" cy="69.58" r="1.38"/><circle class="cls-4" cx="62.98" cy="76.61" r="1.38"/><circle class="cls-4" cx="60.18" cy="82.82" r="1.38"/><circle class="cls-4" cx="55.49" cy="86.87" r="1.38"/></g><path class="cls-5" d="M65.48,74.89C57,62.29,55.56,50.56,60,32.15c-2.51,1.58-.79,1.11-1.17,1.52.33-.34-1.4.7-1.09.37-6.36,9-13,38.84-4.9,46.25,1.17,1,3.06,3,5.64,3C63.32,83.4,68.85,80.07,65.48,74.89Z"/><g class="cls-3"><circle class="cls-4" cx="53.33" cy="60.11" r="1.33"/><circle class="cls-4" cx="53.4" cy="67.14" r="1.33"/><circle class="cls-4" cx="54.54" cy="73.62" r="1.33"/><circle class="cls-4" cx="57.96" cy="78.53" r="1.33"/></g><path class="cls-5" d="M69.85,74.89c8.47-12.6,9.92-24.33,5.43-42.74,2.51,1.58.8,1.11,1.17,1.52-.33-.34,1.41.7,1.09.37,6.36,9,13,38.84,4.91,46.25-1.18,1-3.07,3-5.64,3C72,83.4,66.47,80.07,69.85,74.89Z"/><g class="cls-3"><circle class="cls-4" cx="81.99" cy="60.11" r="1.33"/><circle class="cls-4" cx="81.92" cy="67.14" r="1.33"/><circle class="cls-4" cx="80.79" cy="73.62" r="1.33"/><circle class="cls-4" cx="77.37" cy="78.53" r="1.33"/></g><path class="cls-4" d="M70.06,25a5.7,5.7,0,0,1-2.63.45,5.79,5.79,0,0,1-2.56-.76,2.64,2.64,0,0,0-.28,1.05,2.82,2.82,0,1,0,5.62.34A2.78,2.78,0,0,0,70.06,25Z"/><circle class="cls-4" cx="58.28" cy="17.2" r="2.79"/><circle class="cls-5" cx="58.27" cy="17.19" r="1.46"/><circle class="cls-4" cx="77.31" cy="18.35" r="2.79"/><circle class="cls-5" cx="77.32" cy="18.35" r="1.46"/><path class="cls-5" d="M84.31,18.16l.12-1.84a3.06,3.06,0,0,0-2.86-3.24l-10.95-.67A.62.62,0,0,0,70,13l-.22,3.69a3,3,0,0,0-3.65-.22l.22-3.69a.61.61,0,0,0-.57-.65l-11-.67a3.07,3.07,0,0,0-3.23,2.88l-.11,1.84-1.82-.11-.08,1.22,1.83.11-.26,4.29a.61.61,0,0,0,.57.65L62.65,23a3.06,3.06,0,0,0,3.23-2.87L66,18.89a1.83,1.83,0,1,1,3.65.22l-.07,1.23a3.06,3.06,0,0,0,2.85,3.25l11,.66a.61.61,0,0,0,.65-.57l.26-4.29,1.82.11.08-1.23ZM64.66,20a1.84,1.84,0,0,1-1.94,1.73l-10.34-.63.41-6.74a1.83,1.83,0,0,1,1.94-1.72l10.34.62ZM82.8,23l-10.34-.63a1.84,1.84,0,0,1-1.72-1.95l.41-6.74,10.35.63a1.84,1.84,0,0,1,1.71,1.95Z"/><path class="cls-5" d="M83.37,25h-.08l-11-.67a3.85,3.85,0,0,1-3.59-4.08l.07-1.22a1.05,1.05,0,0,0-1-1.12,1.09,1.09,0,0,0-.75.26,1.08,1.08,0,0,0-.35.73l-.08,1.22a3.85,3.85,0,0,1-4.06,3.62l-11-.66a1.38,1.38,0,0,1-1-.48,1.39,1.39,0,0,1-.35-1l.21-3.5L48.73,18l.17-2.8,1.82.11.06-1.05a3.87,3.87,0,0,1,4.07-3.62l10.95.67a1.39,1.39,0,0,1,1.31,1.48L67,15.23a3.78,3.78,0,0,1,2.08.13l.15-2.42a1.41,1.41,0,0,1,1.48-1.32l11,.67a3.85,3.85,0,0,1,3.59,4.08l-.06,1.05,1.83.11-.18,2.8L85,20.22l-.21,3.5A1.41,1.41,0,0,1,83.37,25ZM71.89,14.51l-.36,6a1.05,1.05,0,0,0,.26.76,1,1,0,0,0,.71.35l9.56.58.36-5.95a1,1,0,0,0-1-1.11ZM53.22,20.4l9.55.58a1,1,0,0,0,1.1-1L64.23,14l-9.55-.58a1.08,1.08,0,0,0-.75.26,1,1,0,0,0-.35.73Z"/><path class="cls-1" d="M68.51.23l-1,0v45.6a54.72,54.72,0,0,0,16.09-2.38L86.27,40l.63-19.72A19.42,19.42,0,0,0,68.51.23Z"/><circle class="cls-4" cx="77.24" cy="18.23" r="2.87"/><circle class="cls-5" cx="77.25" cy="18.23" r="1.5"/><path class="cls-5" d="M84.43,17.83l.06-1.89a3.13,3.13,0,0,0-3-3.25l-11.27-.36a.63.63,0,0,0-.65.61l-.12,3.8A3,3,0,0,0,67.5,16v1.26h0a1.88,1.88,0,0,1,1.82,1.95l0,1.26a3.16,3.16,0,0,0,3,3.26l11.28.36a.63.63,0,0,0,.64-.61l.14-4.42,1.88.06,0-1.26Zm-1.41,5L72.37,22.5a1.89,1.89,0,0,1-1.81-2l.22-6.93L81.42,14a1.88,1.88,0,0,1,1.82,2Z"/><path class="cls-5" d="M83.63,24.91h0l-11.27-.35a4,4,0,0,1-3.8-4.07l0-1.26a1.1,1.1,0,0,0-1-1.14h0l-.77,0V15.23h.8a3.77,3.77,0,0,1,1.16.2l.09-2.53a1.38,1.38,0,0,1,.44-1,1.43,1.43,0,0,1,1-.38l11.27.36A3.93,3.93,0,0,1,85.28,16l0,1.11,1.88.06L87,20l-1.88-.06L85,23.53a1.42,1.42,0,0,1-1.41,1.38ZM71.54,14.42l-.2,6.15a1.1,1.1,0,0,0,1.06,1.14l9.86.31.19-6.15a1.09,1.09,0,0,0-1-1.13Z"/><path class="cls-1" d="M66.81.23l1,0v45.6a56,56,0,0,1-18.67-3.2l0,0-.71-22.35A19.42,19.42,0,0,1,66.81.23Z"/><path class="cls-4" d="M70.31,25.29a6,6,0,0,1-5,0,2.73,2.73,0,0,0-.18,1.11,2.68,2.68,0,1,0,5.35,0A2.91,2.91,0,0,0,70.31,25.29Z"/><circle class="cls-4" cx="58.08" cy="18.23" r="2.87"/><circle class="cls-5" cx="58.07" cy="18.23" r="1.5"/><path class="cls-5" d="M49,17.89l0,1.26,1.88-.06.14,4.42a.63.63,0,0,0,.65.61L63,23.76a3.16,3.16,0,0,0,3-3.26l0-1.26a1.88,1.88,0,0,1,1.82-1.95h0V16a3,3,0,0,0-1.92.71l-.12-3.8a.63.63,0,0,0-.65-.61l-11.27.36a3.13,3.13,0,0,0-3,3.25l.06,1.89Zm3.07-2a1.88,1.88,0,0,1,1.82-2l10.64-.34.23,6.93a1.9,1.9,0,0,1-1.82,2l-10.65.33Z"/><path class="cls-5" d="M51.69,24.91a1.42,1.42,0,0,1-1.41-1.38l-.12-3.62L48.29,20l-.09-2.84,1.87-.06L50,16a3.93,3.93,0,0,1,3.79-4.06l11.28-.36a1.35,1.35,0,0,1,1,.38,1.43,1.43,0,0,1,.45,1l.08,2.53a3.77,3.77,0,0,1,1.16-.2h.8v2.83l-.79,0h0a1.09,1.09,0,0,0-1,1.14l0,1.26A4,4,0,0,1,63,24.55l-11.27.35Zm1.18-9,.2,6.15,9.85-.31A1.1,1.1,0,0,0,64,20.57l-.2-6.15-9.86.32a1.09,1.09,0,0,0-1.05,1.13Zm14.91,2.21h0Zm0-1.58h0Z"/></g></g></svg>